<?xml version="1.0" encoding="UTF-8" standalone="no"?>
<!-- Created with Inkscape (http://www.inkscape.org/) -->

<svg
   width="148.86099"
   height="276.69901"
   viewBox="0 0 39.38613 73.209938"
   version="1.1"
   id="svg1"
   inkscape:version="1.4 (86a8ad7, 2024-10-11)"
   sodipodi:docname="decorator.svg"
   xmlns:inkscape="http://www.inkscape.org/namespaces/inkscape"
   xmlns:sodipodi="http://sodipodi.sourceforge.net/DTD/sodipodi-0.dtd"
   xmlns:xlink="http://www.w3.org/1999/xlink"
   xmlns="http://www.w3.org/2000/svg"
   xmlns:svg="http://www.w3.org/2000/svg">
  <sodipodi:namedview
     id="namedview1"
     pagecolor="#505050"
     bordercolor="#eeeeee"
     borderopacity="1"
     inkscape:showpageshadow="0"
     inkscape:pageopacity="0"
     inkscape:pagecheckerboard="0"
     inkscape:deskcolor="#505050"
     inkscape:document-units="mm"
     inkscape:zoom="1"
     inkscape:cx="90"
     inkscape:cy="235.5"
     inkscape:window-width="1147"
     inkscape:window-height="1211"
     inkscape:window-x="741"
     inkscape:window-y="111"
     inkscape:window-maximized="0"
     inkscape:current-layer="layer1" />
  <defs
     id="defs1">
    <linearGradient
       id="swatch37">
      <stop
         style="stop-color:#351d30;stop-opacity:1;"
         offset="0"
         id="stop37" />
    </linearGradient>
    <linearGradient
       id="linearGradient5"
       inkscape:collect="always">
      <stop
         style="stop-color:#f9cfa4;stop-opacity:1;"
         offset="0"
         id="stop9" />
      <stop
         style="stop-color:#d8ccc5;stop-opacity:1;"
         offset="0.80858088"
         id="stop5" />
      <stop
         style="stop-color:#e5dedc;stop-opacity:1;"
         offset="1"
         id="stop6" />
    </linearGradient>
    <linearGradient
       inkscape:collect="always"
       xlink:href="#linearGradient5"
       id="linearGradient6"
       x1="15.440758"
       y1="50.677502"
       x2="18.389236"
       y2="16.976242"
       gradientUnits="userSpaceOnUse"
       gradientTransform="translate(2.80633,2.80633)" />
    <linearGradient
       inkscape:collect="always"
       xlink:href="#linearGradient5"
       id="linearGradient41"
       gradientUnits="userSpaceOnUse"
       x1="15.440758"
       y1="50.677502"
       x2="18.389236"
       y2="16.976242"
       gradientTransform="translate(2.5417477,2.4640999)" />
    <filter
       inkscape:collect="always"
       style="color-interpolation-filters:sRGB"
       id="filter41"
       x="-0.080399715"
       y="-0.040199629"
       width="1.1605863"
       height="1.0799225">
      <feGaussianBlur
         inkscape:collect="always"
         stdDeviation="0.74745074"
         id="feGaussianBlur41" />
    </filter>
  </defs>
  <g
     inkscape:label="Layer 1"
     inkscape:groupmode="layer"
     id="layer1">
    <path
       style="opacity:1;mix-blend-mode:normal;fill:url(#linearGradient6);stroke:#351d30;stroke-width:1.85208;stroke-linecap:square;stroke-linejoin:miter;stroke-dasharray:none;stroke-opacity:1;paint-order:markers fill stroke;filter:url(#filter41)"
       d="m 15.903204,69.986848 c -1.508297,-0.69388 -2.333305,-1.945042 -2.459979,-3.73067 -0.173379,-2.443954 0.34154,-5.118933 1.433137,-7.445089 1.057626,-2.253763 1.048316,-2.579963 -0.09531,-3.339304 -0.520274,-0.345448 -0.655725,-0.289629 -1.754214,0.722924 -1.043585,0.961943 -1.243512,1.330775 -1.621004,2.990482 -0.236831,1.041265 -0.556776,2.04524 -0.710991,2.231057 -0.156509,0.188582 -0.8439335,0.337849 -1.5559061,0.337849 -1.0181458,0 -1.3586248,-0.118653 -1.6873934,-0.588039 -0.5774118,-0.824368 -0.5162295,-1.969397 0.1346931,-2.520815 1.7916101,-1.517735 5.2742594,-5.343054 5.2742594,-5.793214 0,-0.724603 -0.92551,-2.475015 -1.308634,-2.475015 -0.59858,0 -2.1273057,1.525061 -2.5594576,2.553324 -0.4890612,1.163675 -1.0769336,1.680009 -1.9127682,1.680009 -1.0497211,0 -1.8468392,-0.680535 -2.0470282,-1.747644 -0.261427,-1.393518 0.186484,-2.135217 1.4147746,-2.342735 0.8792184,-0.148542 3.3003675,-1.518811 4.5289524,-2.563193 0.552733,-0.469866 0.187383,-3.837625 -0.52134,-4.805654 -2.0371254,-2.782467 -2.2180925,-3.18117 -2.3154591,-5.101389 -0.1042009,-2.055005 0.1064207,-2.648397 1.9144751,-5.393769 1.09793,-1.66711 1.175379,-2.451642 0.440504,-4.462177 -0.7148429,-1.955723 -0.9391091,-2.158439 -2.3879065,-2.158439 -1.6069284,0 -2.1252788,-0.533805 -2.1252788,-2.188644 0,-1.483368 0.6246653,-2.04469 2.2754351,-2.04469 1.1756522,0 1.5531862,0.275604 1.8169122,1.326373 0.09138,0.364074 0.924655,1.466577 1.851732,2.450004 0.927073,0.983428 1.94085,2.315348 2.252839,2.959828 0.840769,1.736797 1.506725,2.47114 2.875536,3.170815 3.425114,1.750766 4.668563,5.638403 2.952721,9.231666 -0.635793,1.331463 -1.002056,1.62858 -4.43403,3.596969 -1.35242,0.775671 -1.918229,1.252831 -1.918229,1.617683 0,0.372272 0.181245,0.517496 0.645842,0.517496 0.355214,0 0.510813,-0.02567 1.0515,-0.164878 0.820396,-0.211248 1.061855,-0.256217 1.407533,-0.293409 0.773263,-0.0832 5.508005,-0.189953 7.042144,0.22048 0.560393,0.149923 1.087697,0.203784 1.171787,0.119694 0.08409,-0.08409 -0.03931,-0.776523 -0.27422,-1.538742 -0.504444,-1.636776 -0.65919,-2.810963 -0.862597,-6.545228 -0.212365,-3.898749 -0.552815,-4.484666 -4.593309,-7.905176 -4.869223,-4.122074 -5.725189,-5.79361 -5.707071,-11.144825 0.01069,-3.15758 0.04961,-3.389381 0.859814,-5.120722 0.466738,-0.997386 0.921634,-2.307073 1.010878,-2.910416 0.265361,-1.7939759 0.716409,-2.2876109 2.090256,-2.2876109 0.831749,0 1.342123,0.157596 1.713693,0.529166 0.670621,0.6706209 0.707607,2.2265489 0.06615,2.7826739 -0.254662,0.220783 -0.901589,0.761946 -1.437619,1.202589 -0.725197,0.596148 -1.129525,1.255125 -1.580023,2.575139 -1.250471,3.664021 -0.395552,7.961278 2.133711,10.725129 0.988568,1.08026 3.711699,2.529816 5.113435,2.721944 1.06467,0.14593 1.22487,0.101084 1.379525,-0.386192 0.259691,-0.818218 -0.167352,-1.395865 -1.882331,-2.546162 -3.406857,-2.2851 -4.318902,-3.769571 -4.313616,-7.020954 0.0039,-2.394278 0.529082,-3.712478 2.108272,-5.291667 1.49607,-1.496071 2.923008,-2.103691 4.957141,-2.110856 2.342666,-0.0083 3.926051,0.489783 5.2432,1.649185 1.482172,1.30466 2.225694,2.892935 2.415799,5.16052 0.192307,2.293842 -0.128002,3.310314 -1.848651,5.866522 -1.827972,2.715649 -3.536278,6.483842 -3.908529,8.621456 -0.454099,2.607636 -0.181795,8.062442 0.495076,9.91734 1.42695,3.910425 2.972212,6.345743 5.606822,8.83629 1.939094,1.833062 2.655866,3.023369 2.827134,4.694885 0.21386,2.087182 -0.241538,3.414422 -1.60174,4.668213 -1.024345,0.944206 -1.354474,1.0873 -2.887213,1.251442 -4.057446,0.434515 -9.647182,-1.156988 -13.367245,-3.805906 -1.006972,-0.717027 -1.550426,-0.599718 -1.798378,0.388194 -0.314743,1.254042 0.167047,2.006904 1.671262,2.611572 1.762876,0.708647 2.659464,1.562491 3.010805,2.867274 0.597392,2.218544 -0.644639,4.630785 -2.685735,5.216165 -1.264621,0.362688 -1.810113,0.319558 -3.02454,-0.239128 z m 2.313072,-1.760178 c 0.951741,-0.346284 1.452166,-1.175242 1.413502,-1.919443 -0.08931,-1.718993 -0.710411,-1.917142 -1.6393,-2.058697 -1.003204,-0.152879 -1.377775,0.03037 -1.867839,0.584166 -0.619652,0.700243 -1.037172,1.73356 -0.419291,2.586445 0.547746,0.75607 1.294953,1.250677 2.512928,0.807529 z m 14.663989,-9.24474 c 0.712624,-0.623533 0.727978,-0.48741 0.18518,-1.631272 -0.93026,-1.960372 -2.994311,-2.06198 -3.518808,-0.173223 -0.366443,1.319593 -0.366794,1.316842 0.247192,1.930829 0.715286,0.715285 1.672506,1.110831 2.467642,0.415102 z m -7.91914,-1.262729 c 0.455041,-0.472943 0.908113,-1.18767 1.006821,-1.58828 0.09871,-0.400611 0.523666,-1.018003 0.944346,-1.371981 1.244756,-1.047393 1.01083,-1.294649 -1.021067,-1.079238 -2.263026,0.23991 -3.346678,0.613756 -4.923197,1.698429 -1.556496,1.070898 -1.566093,1.730409 -0.03774,2.594149 1.597112,0.9026 3.00388,0.814277 4.030837,-0.253079 z m -5.473978,-4.028009 c 1.084768,-0.651055 2.627151,-1.324739 3.427515,-1.497076 2.342907,-0.504483 2.264463,-0.84683 -0.154,-0.672099 -1.459193,0.105425 -2.677713,0.383053 -3.836459,0.874096 -2.142286,0.907841 -2.35954,1.078158 -2.35954,1.849755 0,0.927978 0.661238,0.802475 2.922484,-0.554676 z m -3.086005,-2.752923 c 1.10644,-0.666668 3.934645,-1.436629 7.380769,-2.00937 0.623647,-0.103651 0.932659,-0.274336 0.821698,-0.453877 -0.21091,-0.341262 -5.552808,-0.08838 -8.435822,0.399349 -1.82133,0.308118 -1.851146,0.326197 -1.795629,1.088784 0.118251,1.62433 0.581785,1.847101 2.028984,0.975114 z m 0.09979,-9.820243 c 2.311897,-1.409581 2.614311,-4.951862 0.561837,-6.580971 -0.933534,-0.740971 -2.606315,-1.169299 -3.614758,-0.925584 -2.712778,0.655609 -3.9866038,3.956233 -2.437955,6.317007 1.078277,1.643745 3.784401,2.230001 5.490876,1.189548 z m -3.442084,-1.848818 c -0.568851,-0.447459 -0.727522,-0.794711 -0.727522,-1.592194 0,-1.399405 1.009918,-2.226442 2.479432,-2.030447 1.279747,0.170683 1.496832,0.38813 1.669005,1.671772 0.174479,1.30084 -0.470459,2.167557 -1.767269,2.374996 -0.702633,0.112392 -1.10169,0.01005 -1.653646,-0.424127 z M 28.863142,22.508827 c 1.15417,-1.105893 1.195236,-1.199142 1.194281,-2.71198 -0.0016,-2.509543 -1.081984,-3.844774 -3.387815,-4.186885 -2.413577,-0.358098 -4.626922,1.439309 -4.662546,3.786349 -0.04074,2.684391 1.488895,4.257786 4.139375,4.257786 1.433777,0 1.590299,-0.06598 2.716705,-1.14527 z M 24.622429,21.15258 c -0.811382,-0.811379 -0.841751,-1.945129 -0.07811,-2.915944 0.498367,-0.633571 0.705739,-0.708292 1.623902,-0.585141 1.375825,0.184536 1.833697,0.683492 1.869183,2.0369 0.02267,0.864761 -0.10731,1.218594 -0.59178,1.610894 C 26.57955,22.000594 25.409645,21.9398 24.622427,21.15258 Z M 3.751212,18.794209 C 2.901709,17.993027 2.80633,17.763339 2.80633,16.518792 c 0,-1.221499 0.105783,-1.490062 0.899583,-2.283862 0.784543,-0.78454 1.06974,-0.899583 2.23012,-0.899583 1.1472703,0 1.4606825,0.122743 2.2754166,0.891138 0.8089847,0.762971 0.9435333,1.057883 0.9355058,2.05052 C 9.1301544,18.353654 7.827309,19.68041 5.8017331,19.683603 4.908492,19.684903 4.514575,19.514153 3.751212,18.794209 Z M 7.0711061,10.644484 C 5.5715139,9.9022091 4.802394,8.3335821 4.988478,6.3969451 5.222693,3.9594421 6.8679537,2.6525691 9.4906148,2.8207811 12.134159,2.9903331 13.496681,4.5744451 13.32394,7.2775241 13.116552,10.522765 10.103239,12.145344 7.0711061,10.644484 Z"
       id="path1"
       sodipodi:nodetypes="ssssssssssssssssssssssssssssssssssssssssssssssssssssssssssssssssssssssssssssssssssssssssssssssssssssssssssssssssssssssssssssssssscssssss" />
    <path
       style="mix-blend-mode:normal;fill:url(#linearGradient41);stroke:#351d30;stroke-width:1.05833;stroke-linecap:square;stroke-linejoin:miter;stroke-dasharray:none;stroke-opacity:1;paint-order:stroke markers fill"
       d="m 15.638621,69.644607 c -1.508297,-0.69387 -2.333305,-1.94504 -2.459979,-3.73067 -0.173379,-2.44395 0.34154,-5.11893 1.433137,-7.44508 1.057626,-2.25377 1.048316,-2.57997 -0.09531,-3.33931 -0.520274,-0.34545 -0.655725,-0.28963 -1.754213,0.72293 -1.043585,0.96194 -1.243512,1.33077 -1.621004,2.99048 -0.236831,1.04126 -0.556776,2.04524 -0.710991,2.23105 -0.156509,0.18859 -0.8439343,0.33785 -1.5559063,0.33785 -1.018146,0 -1.358625,-0.11865 -1.687394,-0.58803 -0.577411,-0.82437 -0.516229,-1.9694 0.134694,-2.52082 1.79161,-1.51773 5.2742593,-5.34305 5.2742593,-5.79321 0,-0.72461 -0.92551,-2.47502 -1.308634,-2.47502 -0.59858,0 -2.1273063,1.52506 -2.5594583,2.55333 -0.489061,1.16367 -1.076933,1.68 -1.912768,1.68 -1.049721,0 -1.846839,-0.68053 -2.047028,-1.74764 -0.261427,-1.39352 0.186484,-2.13522 1.414775,-2.34273 0.879218,-0.14855 3.300367,-1.51882 4.5289523,-2.56319 0.552733,-0.46987 0.187383,-3.83763 -0.52134,-4.80566 C 8.1532877,40.026422 7.9723197,39.627719 7.8749537,37.7075 c -0.104201,-2.055005 0.106421,-2.648397 1.914475,-5.393769 1.0979303,-1.66711 1.1753793,-2.451642 0.4405043,-4.462177 -0.7148433,-1.955723 -0.9391093,-2.158439 -2.3879063,-2.158439 -1.606929,0 -2.125279,-0.533805 -2.125279,-2.188644 0,-1.483368 0.624665,-2.04469 2.275435,-2.04469 1.175652,0 1.553186,0.275604 1.816912,1.326373 0.09138,0.364074 0.9246553,1.466577 1.8517313,2.450004 0.927074,0.983428 1.94085,2.315348 2.252839,2.959828 0.840769,1.736797 1.506725,2.47114 2.875536,3.170815 3.425112,1.750766 4.668562,5.638403 2.952722,9.231666 -0.635794,1.33146 -1.002057,1.62858 -4.434031,3.59697 -1.35242,0.77567 -1.918229,1.25283 -1.918229,1.61768 0,0.37227 0.181245,0.5175 0.645842,0.5175 0.355214,0 0.510813,-0.0257 1.0515,-0.16488 0.820396,-0.21125 1.061855,-0.25622 1.407533,-0.29341 0.773263,-0.0832 5.508005,-0.18995 7.042145,0.22048 0.56039,0.14992 1.0877,0.20378 1.17179,0.11969 0.0841,-0.0841 -0.0393,-0.77652 -0.27422,-1.53874 -0.50445,-1.63677 -0.65919,-2.81096 -0.8626,-6.545225 -0.21237,-3.898749 -0.55282,-4.484666 -4.59331,-7.905176 -4.869223,-4.122074 -5.725189,-5.79361 -5.707071,-11.144825 0.01069,-3.15758 0.04961,-3.389381 0.859814,-5.120722 0.466738,-0.997385 0.921634,-2.307072 1.010878,-2.910414 0.265361,-1.7939761 0.716409,-2.2876111 2.090256,-2.2876111 0.831749,0 1.342123,0.157596 1.713693,0.529166 0.670621,0.670621 0.707607,2.2265481 0.06615,2.7826731 -0.254662,0.220784 -0.901589,0.761946 -1.437619,1.202588 -0.725197,0.596148 -1.129525,1.255125 -1.580023,2.575139 -1.250471,3.664021 -0.395552,7.961278 2.133711,10.725129 0.988568,1.08026 3.711701,2.529816 5.113431,2.721944 1.06467,0.14593 1.22487,0.101084 1.37953,-0.386192 0.25969,-0.818218 -0.16735,-1.395865 -1.88233,-2.546162 -3.406859,-2.2851 -4.318904,-3.769571 -4.313618,-7.020954 0.0039,-2.394278 0.529082,-3.712478 2.108268,-5.291667 1.49607,-1.496069 2.92301,-2.103689 4.95714,-2.110854 2.34267,-0.0083 3.92606,0.489783 5.2432,1.649183 1.48217,1.30466 2.22569,2.892935 2.4158,5.16052 0.19231,2.293842 -0.128,3.310314 -1.84865,5.866522 -1.82797,2.715649 -3.53628,6.483842 -3.90853,8.621456 -0.4541,2.607636 -0.18179,8.062442 0.49508,9.917342 1.42695,3.91042 2.97221,6.34574 5.60682,8.83628 1.93909,1.83307 2.65586,3.02337 2.82713,4.69489 0.21386,2.08718 -0.24154,3.41442 -1.60174,4.66821 -1.02434,0.94421 -1.35447,1.0873 -2.88721,1.25144 -4.05744,0.43452 -9.64718,-1.15698 -13.367242,-3.8059 -1.006972,-0.71703 -1.550426,-0.59972 -1.798378,0.38819 -0.314743,1.25404 0.167047,2.00691 1.671262,2.61157 1.762878,0.70865 2.659468,1.5625 3.010808,2.86728 0.59739,2.21854 -0.64464,4.63078 -2.685738,5.21616 -1.264621,0.36269 -1.810113,0.31956 -3.02454,-0.23912 z m 2.313072,-1.76017 c 0.951741,-0.34629 1.452166,-1.17524 1.413502,-1.91945 -0.08931,-1.71899 -0.710411,-1.91714 -1.6393,-2.05869 -1.003204,-0.15288 -1.377775,0.0304 -1.867839,0.58416 -0.619652,0.70025 -1.037172,1.73356 -0.419291,2.58645 0.547746,0.75607 1.294953,1.25067 2.512928,0.80753 z m 14.66399,-9.24474 c 0.71262,-0.62354 0.72797,-0.48741 0.18517,-1.63128 -0.93025,-1.96037 -2.9943,-2.06197 -3.5188,-0.17322 -0.36644,1.31959 -0.36679,1.31684 0.24719,1.93083 0.71529,0.71529 1.6725,1.11083 2.46764,0.4151 z m -7.91914,-1.26273 c 0.45504,-0.47295 0.90811,-1.18767 1.00682,-1.58828 0.0987,-0.40061 0.52367,-1.018 0.94435,-1.37198 1.24475,-1.0474 1.01083,-1.29465 -1.02107,-1.07924 -2.26303,0.23991 -3.34668,0.61376 -4.9232,1.69843 -1.556494,1.0709 -1.566091,1.73041 -0.0377,2.59415 1.59711,0.9026 3.00388,0.81427 4.03084,-0.25308 z m -5.473979,-4.02801 c 1.084769,-0.65106 2.627149,-1.32474 3.427519,-1.49708 2.3429,-0.50448 2.26446,-0.84683 -0.154,-0.6721 -1.4592,0.10543 -2.67772,0.38306 -3.836463,0.8741 -2.142286,0.90784 -2.35954,1.07816 -2.35954,1.84976 0,0.92797 0.661238,0.80247 2.922484,-0.55468 z m -3.086005,-2.75292 c 1.10644,-0.66667 3.934644,-1.43663 7.380764,-2.00937 0.62365,-0.10365 0.93266,-0.27434 0.8217,-0.45388 -0.21091,-0.34126 -5.552805,-0.0884 -8.435819,0.39935 -1.82133,0.30812 -1.851146,0.3262 -1.795629,1.08878 0.118251,1.62433 0.581785,1.8471 2.028984,0.97512 z m 0.09979,-9.820243 c 2.311897,-1.409581 2.614311,-4.951862 0.561837,-6.580971 -0.933534,-0.740971 -2.606315,-1.169299 -3.614758,-0.925584 -2.712777,0.655609 -3.9866033,3.956233 -2.437954,6.317007 1.078277,1.643745 3.7844,2.230001 5.490875,1.189548 z m -3.442083,-1.848818 c -0.568851,-0.447459 -0.727522,-0.794711 -0.727522,-1.592194 0,-1.399405 1.009917,-2.226442 2.479431,-2.030447 1.279747,0.170683 1.496832,0.38813 1.669005,1.671772 0.174479,1.30084 -0.470459,2.167557 -1.767269,2.374996 -0.702633,0.112392 -1.10169,0.01005 -1.653645,-0.424127 z M 28.598563,22.166595 c 1.15417,-1.105893 1.19523,-1.199142 1.19428,-2.71198 -0.002,-2.509543 -1.08199,-3.844774 -3.38782,-4.186885 -2.41358,-0.358098 -4.62692,1.439309 -4.66254,3.786349 -0.0407,2.684391 1.48889,4.257786 4.13937,4.257786 1.43378,0 1.5903,-0.06598 2.71671,-1.14527 z m -4.24072,-1.356247 c -0.81138,-0.811379 -0.84175,-1.945129 -0.0781,-2.915944 0.49837,-0.633571 0.70574,-0.708292 1.6239,-0.585141 1.37583,0.184536 1.8337,0.683492 1.86919,2.0369 0.0227,0.864761 -0.10731,1.218594 -0.59178,1.610894 -0.86608,0.701305 -2.03598,0.640511 -2.8232,-0.146709 z M 3.4866297,18.451977 c -0.849503,-0.801182 -0.944882,-1.03087 -0.944882,-2.275417 0,-1.221499 0.105783,-1.490062 0.899583,-2.283862 0.784543,-0.78454 1.06974,-0.899582 2.23012,-0.899582 1.14727,0 1.460682,0.122742 2.275417,0.891137 0.808984,0.762971 0.943533,1.057883 0.935505,2.05052 -0.0168,2.076649 -1.319646,3.403405 -3.345222,3.406598 -0.893241,0.0013 -1.287158,-0.16945 -2.050521,-0.889394 z m 3.319894,-8.149723 C 5.3069317,9.5599789 4.5378117,7.9913519 4.7238957,6.0547149 c 0.234215,-2.437503 1.879476,-3.7443757 4.502137,-3.576164 2.6435443,0.169552 4.0060653,1.753664 3.8333243,4.456743 -0.207388,3.2452411 -3.2207003,4.8678191 -6.2528333,3.3669601 z"
       id="path1-1"
       sodipodi:nodetypes="ssssssssssssssssssssssssssssssssssssssssssssssssssssssssssssssssssssssssssssssssssssssssssssssssssssssssssssssssssssssssssssssssscssssss" />
  </g>
</svg>
