<?xml version="1.0" encoding="UTF-8"?>
<!-- Created with Inkscape (http://www.inkscape.org/) -->
<svg width="148.86" height="276.7" version="1.1" viewBox="0 0 39.386 73.21" xmlns="http://www.w3.org/2000/svg" xmlns:xlink="http://www.w3.org/1999/xlink">
 <defs>
  <linearGradient id="linearGradient5">
   <stop stop-color="#f9cfa4" offset="0"/>
   <stop stop-color="#d8ccc5" offset=".80858"/>
   <stop stop-color="#e5dedc" offset="1"/>
  </linearGradient>
  <linearGradient id="linearGradient6" x1="15.441" x2="18.389" y1="50.678" y2="16.976" gradientTransform="translate(2.8063 2.8063)" gradientUnits="userSpaceOnUse" xlink:href="#linearGradient5"/>
  <linearGradient id="linearGradient41" x1="15.441" x2="18.389" y1="50.678" y2="16.976" gradientTransform="translate(2.5417 2.4641)" gradientUnits="userSpaceOnUse" xlink:href="#linearGradient5"/>
  <filter id="filter41" x="-.0804" y="-.0402" width="1.1606" height="1.0799" color-interpolation-filters="sRGB">
   <feGaussianBlur stdDeviation="0.74745074"/>
  </filter>
 </defs>
 <g stroke="#351d30" stroke-linecap="square">
  <path d="m15.903 69.987c-1.5083-0.69388-2.3333-1.945-2.46-3.7307-0.17338-2.444 0.34154-5.1189 1.4331-7.4451 1.0576-2.2538 1.0483-2.58-0.09531-3.3393-0.52027-0.34545-0.65572-0.28963-1.7542 0.72292-1.0436 0.96194-1.2435 1.3308-1.621 2.9905-0.23683 1.0413-0.55678 2.0452-0.71099 2.2311-0.15651 0.18858-0.84393 0.33785-1.5559 0.33785-1.0181 0-1.3586-0.11865-1.6874-0.58804-0.57741-0.82437-0.51623-1.9694 0.13469-2.5208 1.7916-1.5177 5.2743-5.3431 5.2743-5.7932 0-0.7246-0.92551-2.475-1.3086-2.475-0.59858 0-2.1273 1.5251-2.5595 2.5533-0.48906 1.1637-1.0769 1.68-1.9128 1.68-1.0497 0-1.8468-0.68054-2.047-1.7476-0.26143-1.3935 0.18648-2.1352 1.4148-2.3427 0.87922-0.14854 3.3004-1.5188 4.529-2.5632 0.55273-0.46987 0.18738-3.8376-0.52134-4.8057-2.0371-2.7825-2.2181-3.1812-2.3155-5.1014-0.1042-2.055 0.10642-2.6484 1.9145-5.3938 1.0979-1.6671 1.1754-2.4516 0.4405-4.4622-0.71484-1.9557-0.93911-2.1584-2.3879-2.1584-1.6069 0-2.1253-0.5338-2.1253-2.1886 0-1.4834 0.62467-2.0447 2.2754-2.0447 1.1757 0 1.5532 0.2756 1.8169 1.3264 0.09138 0.36407 0.92466 1.4666 1.8517 2.45 0.92707 0.98343 1.9408 2.3153 2.2528 2.9598 0.84077 1.7368 1.5067 2.4711 2.8755 3.1708 3.4251 1.7508 4.6686 5.6384 2.9527 9.2317-0.63579 1.3315-1.0021 1.6286-4.434 3.597-1.3524 0.77567-1.9182 1.2528-1.9182 1.6177 0 0.37227 0.18124 0.5175 0.64584 0.5175 0.35521 0 0.51081-0.02567 1.0515-0.16488 0.8204-0.21125 1.0619-0.25622 1.4075-0.29341 0.77326-0.0832 5.508-0.18995 7.0421 0.22048 0.56039 0.14992 1.0877 0.20378 1.1718 0.11969s-0.03931-0.77652-0.27422-1.5387c-0.50444-1.6368-0.65919-2.811-0.8626-6.5452-0.21236-3.8987-0.55282-4.4847-4.5933-7.9052-4.8692-4.1221-5.7252-5.7936-5.7071-11.145 0.01069-3.1576 0.04961-3.3894 0.85981-5.1207 0.46674-0.99739 0.92163-2.3071 1.0109-2.9104 0.26536-1.794 0.71641-2.2876 2.0903-2.2876 0.83175 0 1.3421 0.1576 1.7137 0.52917 0.67062 0.67062 0.70761 2.2265 0.06615 2.7827-0.25466 0.22078-0.90159 0.76195-1.4376 1.2026-0.7252 0.59615-1.1295 1.2551-1.58 2.5751-1.2505 3.664-0.39555 7.9613 2.1337 10.725 0.98857 1.0803 3.7117 2.5298 5.1134 2.7219 1.0647 0.14593 1.2249 0.10108 1.3795-0.38619 0.25969-0.81822-0.16735-1.3959-1.8823-2.5462-3.4069-2.2851-4.3189-3.7696-4.3136-7.021 0.0039-2.3943 0.52908-3.7125 2.1083-5.2917 1.4961-1.4961 2.923-2.1037 4.9571-2.1109 2.3427-0.0083 3.9261 0.48978 5.2432 1.6492 1.4822 1.3047 2.2257 2.8929 2.4158 5.1605 0.19231 2.2938-0.128 3.3103-1.8487 5.8665-1.828 2.7156-3.5363 6.4838-3.9085 8.6215-0.4541 2.6076-0.1818 8.0624 0.49508 9.9173 1.427 3.9104 2.9722 6.3457 5.6068 8.8363 1.9391 1.8331 2.6559 3.0234 2.8271 4.6949 0.21386 2.0872-0.24154 3.4144-1.6017 4.6682-1.0243 0.94421-1.3545 1.0873-2.8872 1.2514-4.0574 0.43452-9.6472-1.157-13.367-3.8059-1.007-0.71703-1.5504-0.59972-1.7984 0.38819-0.31474 1.254 0.16705 2.0069 1.6713 2.6116 1.7629 0.70865 2.6595 1.5625 3.0108 2.8673 0.59739 2.2185-0.64464 4.6308-2.6857 5.2162-1.2646 0.36269-1.8101 0.31956-3.0245-0.23913zm2.3131-1.7602c0.95174-0.34628 1.4522-1.1752 1.4135-1.9194-0.08931-1.719-0.71041-1.9171-1.6393-2.0587-1.0032-0.15288-1.3778 0.03037-1.8678 0.58417-0.61965 0.70024-1.0372 1.7336-0.41929 2.5864 0.54775 0.75607 1.295 1.2507 2.5129 0.80753zm14.664-9.2447c0.71262-0.62353 0.72798-0.48741 0.18518-1.6313-0.93026-1.9604-2.9943-2.062-3.5188-0.17322-0.36644 1.3196-0.36679 1.3168 0.24719 1.9308 0.71529 0.71528 1.6725 1.1108 2.4676 0.4151zm-7.9191-1.2627c0.45504-0.47294 0.90811-1.1877 1.0068-1.5883 0.09871-0.40061 0.52367-1.018 0.94435-1.372 1.2448-1.0474 1.0108-1.2946-1.0211-1.0792-2.263 0.23991-3.3467 0.61376-4.9232 1.6984-1.5565 1.0709-1.5661 1.7304-0.03774 2.5941 1.5971 0.9026 3.0039 0.81428 4.0308-0.25308zm-5.474-4.028c1.0848-0.65106 2.6272-1.3247 3.4275-1.4971 2.3429-0.50448 2.2645-0.84683-0.154-0.6721-1.4592 0.10542-2.6777 0.38305-3.8365 0.8741-2.1423 0.90784-2.3595 1.0782-2.3595 1.8498 0 0.92798 0.66124 0.80248 2.9225-0.55468zm-3.086-2.7529c1.1064-0.66667 3.9346-1.4366 7.3808-2.0094 0.62365-0.10365 0.93266-0.27434 0.8217-0.45388-0.21091-0.34126-5.5528-0.08838-8.4358 0.39935-1.8213 0.30812-1.8511 0.3262-1.7956 1.0888 0.11825 1.6243 0.58178 1.8471 2.029 0.97511zm0.09979-9.8202c2.3119-1.4096 2.6143-4.9519 0.56184-6.581-0.93353-0.74097-2.6063-1.1693-3.6148-0.92558-2.7128 0.65561-3.9866 3.9562-2.438 6.317 1.0783 1.6437 3.7844 2.23 5.4909 1.1895zm-3.4421-1.8488c-0.56885-0.44746-0.72752-0.79471-0.72752-1.5922 0-1.3994 1.0099-2.2264 2.4794-2.0304 1.2797 0.17068 1.4968 0.38813 1.669 1.6718 0.17448 1.3008-0.47046 2.1676-1.7673 2.375-0.70263 0.11239-1.1017 0.01005-1.6536-0.42413zm15.804-16.76c1.1542-1.1059 1.1952-1.1991 1.1943-2.712-0.0016-2.5095-1.082-3.8448-3.3878-4.1869-2.4136-0.3581-4.6269 1.4393-4.6625 3.7863-0.04074 2.6844 1.4889 4.2578 4.1394 4.2578 1.4338 0 1.5903-0.06598 2.7167-1.1453zm-4.2407-1.3562c-0.81138-0.81138-0.84175-1.9451-0.07811-2.9159 0.49837-0.63357 0.70574-0.70829 1.6239-0.58514 1.3758 0.18454 1.8337 0.68349 1.8692 2.0369 0.02267 0.86476-0.10731 1.2186-0.59178 1.6109-0.86607 0.7013-2.036 0.64051-2.8232-0.14671zm-20.871-2.3584c-0.8495-0.80118-0.94488-1.0309-0.94488-2.2754 0-1.2215 0.10578-1.4901 0.89958-2.2839 0.78454-0.78454 1.0697-0.89958 2.2301-0.89958 1.1473 0 1.4607 0.12274 2.2754 0.89114 0.80898 0.76297 0.94353 1.0579 0.93551 2.0505-0.016801 2.0766-1.3196 3.4034-3.3452 3.4066-0.89324 0.0013-1.2872-0.16945-2.0505-0.88939zm3.3199-8.1497c-1.4996-0.74227-2.2687-2.3109-2.0826-4.2475 0.23422-2.4375 1.8795-3.7444 4.5021-3.5762 2.6435 0.16955 4.0061 1.7537 3.8333 4.4567-0.20739 3.2452-3.2207 4.8678-6.2528 3.367z" fill="url(#linearGradient6)" filter="url(#filter41)" stroke-width="1.8521" style="mix-blend-mode:normal;paint-order:markers fill stroke"/>
  <path d="m15.639 69.645c-1.5083-0.69387-2.3333-1.945-2.46-3.7307-0.17338-2.444 0.34154-5.1189 1.4331-7.4451 1.0576-2.2538 1.0483-2.58-0.09531-3.3393-0.52027-0.34545-0.65572-0.28963-1.7542 0.72293-1.0436 0.96194-1.2435 1.3308-1.621 2.9905-0.23683 1.0413-0.55678 2.0452-0.71099 2.231-0.15651 0.18859-0.84393 0.33785-1.5559 0.33785-1.0181 0-1.3586-0.11865-1.6874-0.58803-0.57741-0.82437-0.51623-1.9694 0.13469-2.5208 1.7916-1.5177 5.2743-5.343 5.2743-5.7932 0-0.72461-0.92551-2.475-1.3086-2.475-0.59858 0-2.1273 1.5251-2.5595 2.5533-0.48906 1.1637-1.0769 1.68-1.9128 1.68-1.0497 0-1.8468-0.68053-2.047-1.7476-0.26143-1.3935 0.18648-2.1352 1.4148-2.3427 0.87922-0.14855 3.3004-1.5188 4.529-2.5632 0.55273-0.46987 0.18738-3.8376-0.52134-4.8057-2.0371-2.7825-2.2181-3.1812-2.3155-5.1014-0.1042-2.055 0.10642-2.6484 1.9145-5.3938 1.0979-1.6671 1.1754-2.4516 0.4405-4.4622-0.71484-1.9557-0.93911-2.1584-2.3879-2.1584-1.6069 0-2.1253-0.5338-2.1253-2.1886 0-1.4834 0.62466-2.0447 2.2754-2.0447 1.1757 0 1.5532 0.2756 1.8169 1.3264 0.09138 0.36407 0.92466 1.4666 1.8517 2.45 0.92707 0.98343 1.9408 2.3153 2.2528 2.9598 0.84077 1.7368 1.5067 2.4711 2.8755 3.1708 3.4251 1.7508 4.6686 5.6384 2.9527 9.2317-0.63579 1.3315-1.0021 1.6286-4.434 3.597-1.3524 0.77567-1.9182 1.2528-1.9182 1.6177 0 0.37227 0.18124 0.5175 0.64584 0.5175 0.35521 0 0.51081-0.0257 1.0515-0.16488 0.8204-0.21125 1.0619-0.25622 1.4075-0.29341 0.77326-0.0832 5.508-0.18995 7.0421 0.22048 0.56039 0.14992 1.0877 0.20378 1.1718 0.11969 0.0841-0.0841-0.0393-0.77652-0.27422-1.5387-0.50445-1.6368-0.65919-2.811-0.8626-6.5452-0.21237-3.8987-0.55282-4.4847-4.5933-7.9052-4.8692-4.1221-5.7252-5.7936-5.7071-11.145 0.01069-3.1576 0.04961-3.3894 0.85981-5.1207 0.46674-0.99738 0.92163-2.3071 1.0109-2.9104 0.26536-1.794 0.71641-2.2876 2.0903-2.2876 0.83175 0 1.3421 0.1576 1.7137 0.52917 0.67062 0.67062 0.70761 2.2265 0.06615 2.7827-0.25466 0.22078-0.90159 0.76195-1.4376 1.2026-0.7252 0.59615-1.1295 1.2551-1.58 2.5751-1.2505 3.664-0.39555 7.9613 2.1337 10.725 0.98857 1.0803 3.7117 2.5298 5.1134 2.7219 1.0647 0.14593 1.2249 0.10108 1.3795-0.38619 0.25969-0.81822-0.16735-1.3959-1.8823-2.5462-3.4069-2.2851-4.3189-3.7696-4.3136-7.021 0.0039-2.3943 0.52908-3.7125 2.1083-5.2917 1.4961-1.4961 2.923-2.1037 4.9571-2.1109 2.3427-0.0083 3.9261 0.48978 5.2432 1.6492 1.4822 1.3047 2.2257 2.8929 2.4158 5.1605 0.19231 2.2938-0.128 3.3103-1.8486 5.8665-1.828 2.7156-3.5363 6.4838-3.9085 8.6215-0.4541 2.6076-0.18179 8.0624 0.49508 9.9173 1.427 3.9104 2.9722 6.3457 5.6068 8.8363 1.9391 1.8331 2.6559 3.0234 2.8271 4.6949 0.21386 2.0872-0.24154 3.4144-1.6017 4.6682-1.0243 0.94421-1.3545 1.0873-2.8872 1.2514-4.0574 0.43452-9.6472-1.157-13.367-3.8059-1.007-0.71703-1.5504-0.59972-1.7984 0.38819-0.31474 1.254 0.16705 2.0069 1.6713 2.6116 1.7629 0.70865 2.6595 1.5625 3.0108 2.8673 0.59739 2.2185-0.64464 4.6308-2.6857 5.2162-1.2646 0.36269-1.8101 0.31956-3.0245-0.23912zm2.3131-1.7602c0.95174-0.34629 1.4522-1.1752 1.4135-1.9194-0.08931-1.719-0.71041-1.9171-1.6393-2.0587-1.0032-0.15288-1.3778 0.0304-1.8678 0.58416-0.61965 0.70025-1.0372 1.7336-0.41929 2.5864 0.54775 0.75607 1.295 1.2507 2.5129 0.80753zm14.664-9.2447c0.71262-0.62354 0.72797-0.48741 0.18517-1.6313-0.93025-1.9604-2.9943-2.062-3.5188-0.17322-0.36644 1.3196-0.36679 1.3168 0.24719 1.9308 0.71529 0.71529 1.6725 1.1108 2.4676 0.4151zm-7.9191-1.2627c0.45504-0.47295 0.90811-1.1877 1.0068-1.5883 0.0987-0.40061 0.52367-1.018 0.94435-1.372 1.2448-1.0474 1.0108-1.2946-1.0211-1.0792-2.263 0.23991-3.3467 0.61376-4.9232 1.6984-1.5565 1.0709-1.5661 1.7304-0.0377 2.5942 1.5971 0.9026 3.0039 0.81427 4.0308-0.25308zm-5.474-4.028c1.0848-0.65106 2.6271-1.3247 3.4275-1.4971 2.3429-0.50448 2.2645-0.84683-0.154-0.6721-1.4592 0.10543-2.6777 0.38306-3.8365 0.8741-2.1423 0.90784-2.3595 1.0782-2.3595 1.8498 0 0.92797 0.66124 0.80247 2.9225-0.55468zm-3.086-2.7529c1.1064-0.66667 3.9346-1.4366 7.3808-2.0094 0.62365-0.10365 0.93266-0.27434 0.8217-0.45388-0.21091-0.34126-5.5528-0.0884-8.4358 0.39935-1.8213 0.30812-1.8511 0.3262-1.7956 1.0888 0.11825 1.6243 0.58178 1.8471 2.029 0.97512zm0.09979-9.8202c2.3119-1.4096 2.6143-4.9519 0.56184-6.581-0.93353-0.74097-2.6063-1.1693-3.6148-0.92558-2.7128 0.65561-3.9866 3.9562-2.438 6.317 1.0783 1.6437 3.7844 2.23 5.4909 1.1895zm-3.4421-1.8488c-0.56885-0.44746-0.72752-0.79471-0.72752-1.5922 0-1.3994 1.0099-2.2264 2.4794-2.0304 1.2797 0.17068 1.4968 0.38813 1.669 1.6718 0.17448 1.3008-0.47046 2.1676-1.7673 2.375-0.70263 0.11239-1.1017 0.01005-1.6536-0.42413zm15.804-16.76c1.1542-1.1059 1.1952-1.1991 1.1943-2.712-2e-3 -2.5095-1.082-3.8448-3.3878-4.1869-2.4136-0.3581-4.6269 1.4393-4.6625 3.7863-0.0407 2.6844 1.4889 4.2578 4.1394 4.2578 1.4338 0 1.5903-0.06598 2.7167-1.1453zm-4.2407-1.3562c-0.81138-0.81138-0.84175-1.9451-0.0781-2.9159 0.49837-0.63357 0.70574-0.70829 1.6239-0.58514 1.3758 0.18454 1.8337 0.68349 1.8692 2.0369 0.0227 0.86476-0.10731 1.2186-0.59178 1.6109-0.86608 0.7013-2.036 0.64051-2.8232-0.14671zm-20.871-2.3584c-0.8495-0.80118-0.94488-1.0309-0.94488-2.2754 0-1.2215 0.10578-1.4901 0.89958-2.2839 0.78454-0.78454 1.0697-0.89958 2.2301-0.89958 1.1473 0 1.4607 0.12274 2.2754 0.89114 0.80898 0.76297 0.94353 1.0579 0.9355 2.0505-0.0168 2.0766-1.3196 3.4034-3.3452 3.4066-0.89324 0.0013-1.2872-0.16945-2.0505-0.88939zm3.3199-8.1497c-1.4996-0.74228-2.2687-2.3109-2.0826-4.2475 0.23422-2.4375 1.8795-3.7444 4.5021-3.5762 2.6435 0.16955 4.0061 1.7537 3.8333 4.4567-0.20739 3.2452-3.2207 4.8678-6.2528 3.367z" fill="url(#linearGradient41)" stroke-width="1.0583" style="mix-blend-mode:normal;paint-order:stroke markers fill"/>
 </g>
</svg>
